<?xml version="1.0" standalone="no"?>
<!DOCTYPE svg PUBLIC "-//W3C//DTD SVG 1.1//EN" "http://www.w3.org/Graphics/SVG/1.1/DTD/svg11.dtd" >
<svg xmlns="http://www.w3.org/2000/svg">
<metadata></metadata>
<defs>
<font id="titlinggothicfb_compmedium" horiz-adv-x="813" >
<font-face units-per-em="2048" ascent="1638" descent="-410" />
<missing-glyph horiz-adv-x="311" />
<glyph unicode="&#xfb01;" horiz-adv-x="917" d="M10 887v239h101v242q0 126 71.5 200t223.5 74q82 0 131 -6v-221q-32 4 -66 4q-42 0 -64 -26t-22 -72v-195h471v-1044q0 -19 2.5 -38.5t5.5 -31t4 -12.5h-276q-17 7 -17 78v815h-190v-893h-274v887h-101z" />
<glyph unicode="&#xfb02;" horiz-adv-x="892" d="M10 887v239h94v242q0 126 65.5 200t209.5 74q83 0 127 -6v-221q-28 4 -64 4q-65 0 -65 -71v-222h123v-239h-121v-887h-275v887h-94zM567 1636h273q0 -1 1 -10.5t2 -26t1 -32.5v-1483q0 -75 12 -84q-270 -2 -270 0q-15 9 -15 78v1460q0 74 -4 98z" />
<glyph horiz-adv-x="2048" />
<glyph horiz-adv-x="2048" />
<glyph unicode="&#xd;" horiz-adv-x="2048" />
<glyph unicode=" "  horiz-adv-x="311" />
<glyph unicode="&#x09;" horiz-adv-x="311" />
<glyph unicode="&#xa0;" horiz-adv-x="311" />
<glyph unicode="!" horiz-adv-x="432" d="M63 1632h306l-33 -1188h-242zM76 0v356h280v-356h-280z" />
<glyph unicode="&#x22;" horiz-adv-x="681" d="M29 1634h266l-12 -641h-242zM379 1634h272l-10 -641h-252z" />
<glyph unicode="#" horiz-adv-x="817" d="M10 506l23 205h139q14 153 16 163h-147l22 207h148l49 500h168l-49 -500h115l47 500h168q-46 -486 -50 -500h142l-21 -207h-141l-18 -163h149l-20 -205h-150l-51 -524h-168l51 524h-113l-51 -524h-168l52 524h-142zM340 711h113q16 153 18 163h-113z" />
<glyph unicode="$" horiz-adv-x="851" d="M23 467h278q0 -86 4 -129q5 -46 37 -72t88 -26q111 0 111 135q0 52 -4 83.5t-17 67t-42 67t-74 69t-117 88.5q-109 95 -160.5 160.5t-75.5 144t-24 198.5q0 154 82.5 253.5t242.5 117.5v43h154v-45q276 -36 307 -326q6 -47 6 -159h-276q0 81 -6 133q-11 108 -113 108 q-117 0 -117 -127q0 -89 49 -155.5t201 -182.5q110 -88 164 -153t80 -150t26 -215q0 -166 -82.5 -265.5t-238.5 -119.5v-110h-154v108q-153 13 -236 88.5t-91 206.5q-2 25 -2 164z" />
<glyph unicode="%" horiz-adv-x="1284" d="M43 1128v222q0 134 73 220.5t216 86.5q76 0 133 -26t89 -70.5t47 -97t15 -113.5v-222q0 -141 -75 -224t-215 -83t-211.5 82.5t-71.5 224.5zM207 0l702 1595h148l-701 -1595h-149zM246 1141q0 -119 86 -119q84 0 84 117v209q0 44 -23 73t-61 29q-42 0 -64 -27.5t-22 -74.5 v-207zM664 289v223q0 131 73.5 219t214.5 88q75 0 132.5 -26t90 -71t48.5 -97.5t16 -112.5v-223q0 -142 -73.5 -223.5t-219.5 -81.5q-140 0 -211 82.5t-71 222.5zM866 301q0 -117 86 -117t86 117v209q0 44 -22.5 73t-63.5 29q-44 0 -65 -28t-21 -74v-209z" />
<glyph unicode="&#x26;" horiz-adv-x="1077" d="M18 307v156q4 103 56 190.5t145 186.5q-110 219 -110 372v131q5 127 90 213t245 86q141 0 221.5 -83.5t86.5 -210.5v-105q-2 -64 -20 -125t-54 -121t-66 -101t-80 -103q70 -134 164 -289q39 106 39 252h248q0 -298 -100 -490q8 -11 192 -266h-319q-8 15 -25.5 43.5 t-25.5 42.5q-108 -98 -279 -98q-181 0 -290 78.5t-118 240.5zM285 397q0 -94 34 -130.5t109 -39.5q80 0 121 43q-68 115 -189 346q-75 -110 -75 -219zM360 1252q0 -36 2 -46q0 -77 46 -194q96 132 98 231v64q-3 82 -68 82q-73 0 -76 -91q-2 -10 -2 -46z" />
<glyph unicode="'" horiz-adv-x="378" d="M53 1634h273l-13 -678h-250z" />
<glyph unicode="(" horiz-adv-x="501" d="M33 748q0 240 52 486.5t114 399.5h295q-62 -169 -113 -418t-51 -473q0 -233 49 -477t115 -409h-295q-67 154 -116.5 398t-49.5 493z" />
<glyph unicode=")" horiz-adv-x="501" d="M12 -143q67 163 115.5 407.5t48.5 478.5q0 226 -51 476t-113 415h297q62 -153 114 -399.5t52 -486.5q0 -247 -49.5 -491t-116.5 -400h-297z" />
<glyph unicode="*" horiz-adv-x="860" d="M70 1317l57 174l217 -92l-4 250h178l-4 -250l213 92l59 -174l-225 -86l160 -189l-143 -112l-150 192l-149 -190l-144 112l160 185z" />
<glyph unicode="+" horiz-adv-x="735" d="M23 702v220h227v249h237v-249h224v-220h-226v-251h-235v251h-227z" />
<glyph unicode="," horiz-adv-x="440" d="M55 -160l84 154l-4 6h-65v369h299v-377l-174 -217z" />
<glyph unicode="-" horiz-adv-x="614" d="M18 657v289h578v-289h-578z" />
<glyph unicode="." horiz-adv-x="440" d="M68 0v369h305v-369h-305z" />
<glyph unicode="/" horiz-adv-x="411" d="M-41 -330l289 1966h170l-291 -1966h-168z" />
<glyph unicode="0" horiz-adv-x="874" d="M35 819q0 360 20 516q12 69 36 122t67 99t114 70.5t166 24.5q173 0 271.5 -90t109.5 -224q21 -243 21 -518q0 -102 -8 -256t-19 -244q-48 -335 -375 -335q-174 0 -262.5 83.5t-114.5 251.5q-11 78 -18.5 233.5t-7.5 266.5zM326 817q0 -287 10 -467q9 -119 102 -119 q95 0 101 119q6 99 6 473q0 301 -4 445q-6 123 -105 123q-52 0 -78 -32.5t-26 -92.5q0 -81 -3 -240.5t-3 -208.5z" />
<glyph unicode="1" horiz-adv-x="604" d="M20 1243v236q224 15 291 157h221v-1636h-286v1253z" />
<glyph unicode="2" horiz-adv-x="851" d="M33 0v254q25 56 74 128.5t99.5 137.5t106 145.5t98.5 155t72 163.5t31 173v117q0 68 -24 92.5t-72 24.5q-93 0 -96 -105v-192h-287q0 200 2 233q2 62 28 119t74 103.5t125.5 74t173.5 27.5q358 0 383 -316q1 -22 0.5 -98t-2.5 -104q-6 -99 -48.5 -209t-103.5 -207 t-121 -180t-117 -159t-77 -114h467v-264h-786z" />
<glyph unicode="3" horiz-adv-x="849" d="M20 520h287q0 -29 -0.5 -68.5t-0.5 -55t1.5 -41t5.5 -56.5q9 -76 97 -76q100 0 106 105q8 138 0 254q-6 68 -41 98.5t-113 34.5l-149 2v256h158q66 6 94.5 34.5t34.5 90.5q5 34 5.5 114t-1.5 99q-6 45 -27 64.5t-61 19.5q-85 0 -92 -92q-5 -113 -5 -175h-268q0 168 6 238 q14 122 109 203.5t256 81.5q172 0 264 -80.5t100 -216.5q5 -59 -2 -199q-7 -113 -67.5 -190.5t-181.5 -90.5q126 -9 199.5 -75t84.5 -176q6 -62 6 -160t-6 -164q-14 -147 -119 -231t-284 -84q-176 0 -273.5 72t-109.5 206q-13 155 -13 258z" />
<glyph unicode="4" horiz-adv-x="888" d="M14 334v268l422 1034h314v-1050h133v-252h-133v-334h-277v334h-459zM262 586h211v516z" />
<glyph unicode="5" horiz-adv-x="839" d="M29 483h286q0 -92 4 -149q3 -55 23.5 -82t65.5 -27t65 26t23 81q4 132 -2 411q-3 53 -21 75t-59 22q-46 0 -68 -29.5t-22 -93.5h-277v917h713v-270h-449v-350q25 50 74.5 73t136.5 23q119 0 194 -69t85 -189q5 -85 5.5 -273t-5.5 -292q-4 -61 -28 -113.5t-69.5 -96 t-121.5 -68.5t-174 -25q-188 0 -277 79.5t-98 229.5q-1 31 -2 93t-2 97z" />
<glyph unicode="6" horiz-adv-x="868" d="M37 819q0 355 22 498q21 153 115.5 243.5t263.5 90.5q315 0 363 -281q6 -49 6 -199h-270q0 83 -2 99q-6 64 -28 92.5t-73 28.5t-76 -35.5t-28 -110.5q-6 -189 -6 -309q33 41 92 62.5t129 21.5q104 0 172 -47.5t90 -132.5q24 -90 22 -314t-28 -303q-77 -239 -355 -239 q-283 0 -362 241q-47 143 -47 594zM324 674q0 -62 3.5 -185.5t6.5 -154.5q8 -107 104 -107q89 0 97 97q3 38 3 180.5t-3 179.5q-3 48 -24.5 72t-66.5 24q-47 0 -79.5 -32.5t-40.5 -73.5z" />
<glyph unicode="7" horiz-adv-x="741" d="M6 1364v270h729v-239l-336 -1395h-311l346 1364h-428z" />
<glyph unicode="8" horiz-adv-x="876" d="M26 474.5q2 133.5 13 209.5q12 86 62.5 138t107.5 69q-55 13 -95.5 67t-47.5 140q-4 38 -5.5 137.5t2.5 146.5q6 56 28 101.5t63 84.5t112.5 61t167.5 22q94 0 167 -23t116 -62t66 -85t28 -99q11 -128 -2 -276q-8 -79 -50 -138.5t-104 -78.5q68 -12 122.5 -73t64.5 -144 q7 -62 7 -177t-5 -198q-9 -150 -114 -231.5t-296 -81.5q-104 0 -177.5 19.5t-120 60t-71 97t-34.5 136.5q-7 44 -5 177.5zM322 491.5q0 -131.5 6 -172.5q6 -43 34.5 -67.5t71.5 -24.5q45 0 74 24t35 66q6 54 6 180t-6 169q-14 88 -109 88t-106 -90q-6 -41 -6 -172.5z M343.5 1200q0.5 -111 4.5 -133q8 -42 28.5 -57t57.5 -15q85 0 90 70q4 51 4 147.5t-4 116.5q-14 76 -90 76q-33 0 -57.5 -19t-30.5 -57q-3 -18 -2.5 -129z" />
<glyph unicode="9" horiz-adv-x="858" d="M39 1092.5q2 227.5 27 320.5q33 110 126 174t238 64q271 0 346 -226q49 -149 49 -585q0 -134 -6.5 -301.5t-17.5 -237.5q-51 -317 -381 -317q-154 0 -245.5 70.5t-111.5 203.5q-10 71 -10 191h273q0 -95 2 -113q4 -58 28 -80.5t72 -22.5q45 0 73 29.5t29 85.5q5 93 5 332 q-69 -78 -209 -78q-102 0 -171.5 44.5t-93.5 131.5t-22 314.5zM324.5 1114q-0.5 -144 3.5 -186q5 -42 31.5 -67t70.5 -25q43 0 69.5 22.5t35.5 50.5q3 29 -0.5 187.5t-6.5 195.5q-9 103 -102 103q-40 0 -67 -25.5t-31 -69.5q-3 -42 -3.5 -186z" />
<glyph unicode=":" horiz-adv-x="421" d="M76 0v350h278v-350h-278zM76 752v350h278v-350h-278z" />
<glyph unicode=";" horiz-adv-x="421" d="M61 -150l78 144l-6 6h-51v350h272v-354l-168 -225zM82 752v350h272v-350h-272z" />
<glyph unicode="&#x3c;" horiz-adv-x="757" d="M29 635v260l684 266v-229l-467 -168l467 -172v-227z" />
<glyph unicode="=" horiz-adv-x="733" d="M29 543v207h676v-207h-676zM29 860v209h676v-209h-676z" />
<glyph unicode="&#x3e;" horiz-adv-x="757" d="M39 365v227l467 172l-467 168v231l682 -268v-260z" />
<glyph unicode="?" horiz-adv-x="800" d="M29 1178q0 162 6 208q9 122 107.5 192.5t263.5 70.5q340 0 362 -269q3 -94 0 -192q-3 -61 -27 -120.5t-58 -105.5t-72.5 -103t-70 -112t-51 -134.5t-16.5 -168.5h-235q-5 109 9.5 201t41 151t59 115t61 96t48 90.5t20.5 102.5v119q-2 49 -23 73.5t-69 24.5 q-42 0 -65.5 -24t-26.5 -66q0 -10 -1 -75t-1 -74h-262zM217 0v356h285v-356h-285z" />
<glyph unicode="@" horiz-adv-x="1452" d="M39 780q7 172 67.5 318t161 247.5t239 158.5t298.5 57q124 0 228 -36.5t177 -101.5t122 -153.5t69.5 -194t13.5 -221.5q-12 -221 -105.5 -354t-246.5 -133q-79 0 -129 38.5t-57 118.5q-36 -74 -109 -114.5t-166 -40.5q-137 0 -207.5 91.5t-58.5 262.5q8 130 54 235 t131 170.5t196 65.5q73 0 121.5 -32.5t66.5 -86.5l21 90l186 2q-7 -53 -22.5 -138.5t-37.5 -200.5t-24 -123q-28 -152 78 -152q147 0 168 305q15 274 -108.5 438t-368.5 164q-126 0 -238.5 -46.5t-199.5 -132t-140.5 -215.5t-60.5 -286q-8 -147 15 -265t71 -198.5 t119 -134.5t155.5 -78t183.5 -24q224 0 396 135l55 -94q-92 -67 -196 -106.5t-261 -39.5q-119 0 -221 29t-186.5 92t-142 156t-86 227.5t-21.5 300.5zM549.5 650q3.5 -44 28.5 -67.5t73 -23.5q67 0 108 47t58 119q27 119 31 156q2 25 -7 52t-35.5 49t-64.5 22 q-69 0 -122 -66t-66 -182q-7 -62 -3.5 -106z" />
<glyph unicode="A" horiz-adv-x="935" d="M0 0l272 1634h420l244 -1634h-303l-53 395h-224l-57 -395h-299zM385 637h168q-61 475 -61 483l-15 248q-10 -160 -18 -248z" />
<glyph unicode="B" horiz-adv-x="974" d="M63 0v1634h517q208 0 278 -123q51 -89 51 -268q0 -200 -45 -295q-23 -46 -57 -70.5t-86 -33.5q115 -14 168 -111q49 -87 49 -287q0 -232 -72 -331q-50 -67 -122.5 -91t-194.5 -24h-486zM356 244h146q71 0 96 57q20 44 20 178q0 45 -6 97t-16 71q-32 58 -88 58h-152v-461z M356 934h158q39 0 64 55q22 49 22 180q0 97 -25 162q-24 60 -81 60h-138v-457z" />
<glyph unicode="C" horiz-adv-x="940" d="M37 825q0 169 10 284.5t37 242.5q31 148 132.5 221.5t281.5 73.5q184 0 278.5 -86t116.5 -254q16 -125 16 -273h-291q0 129 -20 246q-6 39 -34 62.5t-72 23.5q-97 0 -119 -90q-23 -97 -23 -449q0 -339 23 -469q10 -52 42 -77t77 -25q103 0 116 109t13 225h290 q0 -195 -18 -299q-28 -153 -127.5 -231t-284.5 -78q-313 0 -387 251q-57 182 -57 592z" />
<glyph unicode="D" horiz-adv-x="933" d="M63 0v1634h422q129 0 206.5 -34.5t131.5 -114.5q74 -108 74 -633q0 -285 -15 -452.5t-59 -243.5t-113.5 -116t-187.5 -40h-459zM358 236h131q83 0 103 83q9 43 13.5 229.5t4.5 303.5q0 93 -5.5 244.5t-14.5 187.5q-23 96 -113 96h-119v-1144z" />
<glyph unicode="E" d="M63 0v1634h721v-280h-422v-398h394v-266h-394v-414h426v-276h-725z" />
<glyph unicode="F" horiz-adv-x="800" d="M63 0v1634h723v-280h-424v-398h392v-274h-392v-682h-299z" />
<glyph unicode="G" horiz-adv-x="940" d="M37 813q0 411 41 559q13 53 41 99t74 88t120 66t166 24q185 0 281 -75.5t117 -197.5q18 -111 18 -301h-293q0 125 -8 209q-4 49 -32.5 74.5t-76.5 25.5q-45 0 -75 -25t-37 -75q-23 -162 -23 -471q0 -338 25 -467q11 -56 38.5 -82t78.5 -26q58 0 91.5 32.5t37.5 94.5v301 h-166v258h448v-543v-80t0.5 -78t1 -70t1 -61.5t1 -48t0.5 -31.5v-12h-221l-14 74q-68 -88 -250 -88q-131 0 -221.5 70.5t-122.5 203.5q-41 172 -41 553z" />
<glyph unicode="H" horiz-adv-x="960" d="M63 0v1634h297v-682h238v682h299v-1634h-299v686h-238v-686h-297z" />
<glyph unicode="I" horiz-adv-x="436" d="M63 0v1634h312v-1634h-312z" />
<glyph unicode="J" horiz-adv-x="610" d="M16 2v256q43 -5 88 -5q20 0 39 1q59 3 86 38t27 89v1253h297v-1296q0 -186 -90 -267t-283 -81q-84 0 -164 12z" />
<glyph unicode="K" horiz-adv-x="972" d="M63 0v1634h297v-649l320 649h291l-346 -698l348 -936h-311l-236 662l-66 -125v-537h-297z" />
<glyph unicode="L" horiz-adv-x="806" d="M63 0v1634h299v-1358h433v-276h-732z" />
<glyph unicode="M" horiz-adv-x="1292" d="M63 0v1634h400l186 -1030l197 1030h385v-1634h-273l3 1008l-181 -1008h-264l-180 1006l2 -1006h-275z" />
<glyph unicode="N" horiz-adv-x="946" d="M63 0v1634h285l256 -798v798h279v-1634h-283l-258 815v-815h-279z" />
<glyph unicode="O" horiz-adv-x="960" d="M37 821q0 376 26 498q72 328 416 328q184 0 282.5 -76.5t133.5 -233.5q29 -139 29 -506q0 -198 -7 -305.5t-26 -218.5q-56 -325 -412 -325q-180 0 -276.5 78t-130.5 225q-35 149 -35 536zM342 813q0 -373 29 -477q13 -46 38 -69t74 -23q87 0 115 94q27 89 27 479 q0 302 -25 455q-9 60 -36 85t-81 25q-55 0 -79 -25.5t-39 -86.5q-23 -104 -23 -457z" />
<glyph unicode="P" horiz-adv-x="933" d="M63 0v1634h486q184 0 272 -116q82 -105 82 -392t-86 -391q-81 -102 -272 -114l-180 -3v-618h-302zM365 874h114q51 0 77 18t34 58q12 82 12 164q0 124 -20 182q-9 27 -35 44.5t-60 17.5h-122v-484z" />
<glyph unicode="Q" horiz-adv-x="960" d="M37 821q0 376 26 498q72 328 416 328q184 0 282.5 -76.5t133.5 -233.5q29 -139 29 -506q0 -197 -7 -303t-26 -217q-31 -180 -154 -262q4 -4 21.5 -18.5t27.5 -24.5q62 -46 72 -49l-164 -217q-16 9 -67 48t-95 77q-86 75 -129 125q-143 17 -221.5 92.5t-109.5 206.5 q-35 149 -35 532zM342 809q0 -377 29 -481q13 -46 38 -69t74 -23q87 0 115 94q27 89 27 483q0 306 -25 459q-9 60 -36 85t-81 25q-55 0 -79 -25.5t-39 -86.5q-23 -104 -23 -461z" />
<glyph unicode="R" horiz-adv-x="952" d="M63 0v1634h492q96 0 170 -38t109 -109q57 -111 57 -326q0 -176 -39 -276q-20 -47 -50 -79.5t-61 -43.5l199 -762h-309l-164 680h-107v-680h-297zM360 932q134 0 144 2q57 6 69 51q17 41 17 148q0 111 -8 151q-17 78 -86 78h-136v-430z" />
<glyph unicode="S" horiz-adv-x="880" d="M23 1260q0 180 110.5 285.5t302.5 105.5q184 0 280 -91.5t115 -242.5q13 -76 13 -168h-287q0 62 -8 133q-6 53 -32.5 80t-82.5 27q-61 0 -90 -29.5t-29 -93.5q0 -78 41 -141t121 -136q14 -13 47.5 -43t61 -54.5t41.5 -37.5q120 -113 172.5 -214.5t52.5 -256.5 q0 -188 -111.5 -294.5t-298.5 -106.5q-191 0 -295.5 75t-115.5 213q-4 51 -4 195h284q0 -122 4 -146q14 -90 119 -90q60 0 91.5 32.5t31.5 94.5q0 101 -35 168t-127 150q-114 103 -147 131q-60 53 -98 95.5t-69 96.5t-44.5 118t-13.5 145z" />
<glyph unicode="T" d="M6 1354v280h803v-280h-252v-1354h-303v1354h-248z" />
<glyph unicode="U" horiz-adv-x="944" d="M53 373v1261h297v-1253q0 -137 123 -137q56 0 86.5 35.5t30.5 99.5v1255h299v-1265q0 -181 -110.5 -283t-301.5 -102q-192 0 -308 99t-116 290z" />
<glyph unicode="V" horiz-adv-x="933" d="M2 1634h305l162 -1216l160 1216h301l-283 -1634h-375z" />
<glyph unicode="W" horiz-adv-x="1409" d="M0 1634h305q119 -1030 119 -1192q0 72 33 370t67 560l33 262h297q141 -1030 141 -1192q0 72 28.5 370t57.5 560l29 262h297l-223 -1634h-355q-119 848 -127 1018q-1 -76 -32.5 -330.5t-63.5 -471.5l-31 -216h-346z" />
<glyph unicode="X" horiz-adv-x="962" d="M4 0l340 825l-317 809h301l164 -438l174 438h282l-321 -786l329 -848h-301l-182 479l-186 -479h-283z" />
<glyph unicode="Y" horiz-adv-x="985" d="M0 1634h305q160 -598 178 -682l207 682h295l-352 -1022v-612h-299v606z" />
<glyph unicode="Z" horiz-adv-x="837" d="M18 0v248l463 1106h-430v280h764v-243l-467 -1115h477v-276h-807z" />
<glyph unicode="[" horiz-adv-x="479" d="M55 -336v1970h400v-227h-136v-1526h136v-217h-400z" />
<glyph unicode="\" horiz-adv-x="411" d="M-6 1636h170l291 -1966h-168z" />
<glyph unicode="]" horiz-adv-x="481" d="M27 -119h133v1530h-133v223h397v-1970h-397v217z" />
<glyph unicode="^" horiz-adv-x="929" d="M23 1268l327 377h232l327 -377l-168 -162l-276 313l-277 -313z" />
<glyph unicode="_" horiz-adv-x="675" d="M0 -82h676v-244h-676v244z" />
<glyph unicode="`" horiz-adv-x="768" d="M129 1499h293l141 -299h-258z" />
<glyph unicode="a" horiz-adv-x="806" d="M27 205q-4 42 -3.5 86.5t3.5 93.5q7 120 93.5 197t231.5 104q89 14 144 14q0 101 -2 136q-3 77 -80 77q-51 0 -73 -28t-22 -88v-64h-253v84q0 162 84 243t268 81q327 0 340 -258v-373q-2 -88 -2 -309q0 -181 14 -201h-260q-3 0 -6.5 30t-3.5 52q-73 -90 -228 -90 q-98 0 -168.5 50t-76.5 163zM300 360q0 -69 3 -102q8 -53 80 -53q36 0 65.5 20t36.5 60q4 26 6 48t3 50t2 47q1 10 1 27t-0.5 35t-0.5 22q-41 0 -66 -4q-65 -13 -94 -39q-24 -21 -30 -45t-6 -66z" />
<glyph unicode="b" horiz-adv-x="835" d="M53 0v1636h266v-602q21 48 76.5 77.5t132.5 29.5q195 0 246 -187q31 -99 31 -372q0 -186 -31 -357q-19 -102 -88.5 -165.5t-167.5 -63.5q-140 0 -209 80l-30 -76h-226zM317 567q0 -188 13 -282q12 -86 96 -86q39 0 62 23.5t28 62.5q12 94 12 282q0 193 -10 254 q-12 86 -90 86q-42 0 -69.5 -29.5t-30.5 -72.5q-11 -154 -11 -238z" />
<glyph unicode="c" horiz-adv-x="782" d="M33 563q0 125 11.5 209.5t41.5 175.5q31 91 113.5 142t201.5 51q273 0 334 -205q21 -64 21 -268h-256q0 66 -13 159q-11 82 -84 82q-74 0 -86 -84q-16 -107 -16 -264q0 -152 16 -264q6 -43 27.5 -62.5t61.5 -19.5q38 0 60.5 23.5t27.5 60.5q8 59 8 154h254 q0 -123 -6.5 -176t-34.5 -123q-29 -74 -109.5 -121t-199.5 -47q-120 0 -201 43t-115 121q-25 56 -41 171t-16 242z" />
<glyph unicode="d" horiz-adv-x="821" d="M33 559q0 242 43 402q22 83 87 129.5t156 46.5q65 0 116.5 -24.5t74.5 -68.5v592h268v-1478l8 -158h-229l-33 82q-58 -90 -205 -90q-173 0 -229 147q-57 132 -57 420zM301 557q0 -160 14 -278q10 -70 91 -70q74 0 88 76q18 93 18 272q0 183 -20 285q-13 61 -84 61 q-37 0 -60 -20t-29 -52q-18 -105 -18 -274z" />
<glyph unicode="e" horiz-adv-x="790" d="M33 557q0 125 14.5 231.5t38.5 163.5q77 189 322 189q116 0 196.5 -49.5t116.5 -137.5q27 -70 39 -203q7 -78 7 -162q0 -58 -3 -120h-465q0 -116 8 -184q4 -39 32 -59.5t62 -20.5t61 15.5t34 47.5q12 53 12 99h250q0 -41 -12.5 -112t-40.5 -120q-80 -149 -293 -149 q-250 0 -318 159q-61 141 -61 412zM295 670h211q0 137 -14 184q-16 61 -89 61q-71 0 -92 -59q-16 -40 -16 -186z" />
<glyph unicode="f" horiz-adv-x="538" d="M10 887v239h101v244q0 125 65 200t209 75q108 0 162 -7v-223q-41 6 -82 6q-38 0 -59 -26t-21 -60v-209h147v-239h-147v-887h-274v887h-101z" />
<glyph unicode="g" horiz-adv-x="860" d="M10 -59q0 69 36.5 107.5t107.5 66.5q-66 9 -100 52t-34 107q0 59 38 106t96 66q-32 21 -58 68t-30 107q-3 37 -3 251q5 113 96.5 193t260.5 80q182 0 254 -80q57 68 180 68h14v-162q-114 0 -120 -6q11 -21 19.5 -62.5t8.5 -79.5q0 -178 -8 -235q-19 -112 -106 -176 t-226 -64q-81 0 -149 35q-47 -6 -47 -47q0 -12 3.5 -20t14.5 -14t25.5 -9t43.5 -5t59.5 -2.5t82.5 -0.5q114 0 193 -20t121.5 -59t60.5 -87t18 -113q0 -141 -109.5 -216t-314.5 -75q-428 0 -428 226zM242 -6q0 -42 45 -61t145 -19q97 0 143 20t46 64q0 39 -41 54.5 t-148 21.5q-24 1 -69 1t-58 1q-27 -14 -37 -21t-18 -22t-8 -39zM331 681q0 -45 1 -60q2 -38 24.5 -60t65.5 -22q87 0 90 82q2 20 2 108t-2 119q-6 72 -90 72q-87 0 -90 -86q0 -4 -0.5 -56t-0.5 -97z" />
<glyph unicode="h" d="M53 0v1636h271v-614q49 119 206 119q110 0 173 -66.5t63 -208.5q0 -866 4 -866h-274q-2 0 -2 817q0 84 -78 84q-41 0 -66.5 -30t-25.5 -87v-784h-271z" />
<glyph unicode="i" horiz-adv-x="391" d="M51 1186v276h289v-276h-289zM55 78v1048h281v-1044q0 -76 6 -82h-276q-11 0 -11 78z" />
<glyph unicode="j" horiz-adv-x="393" d="M-94 -119h55q51 0 74.5 18.5t23.5 63.5v1163h277v-1237q0 -121 -74 -184t-201 -63q-126 0 -155 10v229zM53 1186v276h287v-276h-287z" />
<glyph unicode="k" horiz-adv-x="817" d="M53 0v1636h271v-942l219 432h266l-213 -409l223 -717h-274l-142 467l-79 -129v-338h-271z" />
<glyph unicode="l" horiz-adv-x="370" d="M41 1636h276q7 -14 7 -69v-1483q0 -78 8 -84h-273q-12 9 -12 78v1460q0 84 -6 98z" />
<glyph unicode="m" horiz-adv-x="1214" d="M53 0v1126h264v-106q21 55 77.5 89t142.5 34q143 0 190 -131q26 64 83 97.5t136 33.5q112 0 164.5 -63t52.5 -175q0 -258 1 -428v-329q0 -117 0.5 -117t0.5 15v-34v-12h-262q-2 0 -2 821q0 84 -72 84q-38 0 -61 -29t-23 -69v-807h-264v825q0 80 -69 80q-40 0 -64 -31.5 t-24 -74.5v-799h-271z" />
<glyph unicode="n" horiz-adv-x="815" d="M53 0v1126h264v-110q20 60 78 92.5t137 32.5q234 0 234 -262q0 -877 4 -879h-268q-3 0 -4 14t-2 91t-1.5 240.5t-0.5 463.5q0 92 -74 92q-43 0 -69.5 -31t-26.5 -98v-772h-271z" />
<glyph unicode="o" horiz-adv-x="817" d="M33 565q0 211 43 353q28 96 111.5 159.5t224.5 63.5q272 0 338 -230q34 -114 34 -346q0 -226 -36 -344q-67 -235 -340 -235q-135 0 -222.5 63t-117.5 172q-14 53 -24.5 153t-10.5 191zM303 561q0 -195 12 -274q7 -38 32.5 -58t62.5 -20t64 23.5t32 56.5q12 84 12 272 q0 209 -12 273q-9 40 -32 57.5t-64 17.5q-76 0 -95 -80q-12 -56 -12 -268z" />
<glyph unicode="p" horiz-adv-x="835" d="M53 -334v1460h260l2 -86q24 47 79 74t132 27q89 0 145 -38t85 -120q49 -131 49 -401q0 -274 -39 -396q-61 -188 -250 -188q-129 0 -194 65v-397h-269zM319 573q0 -170 17 -278q12 -78 86 -78q37 0 60 23t30 57q16 93 16 276q0 197 -20 273q-16 61 -84 61q-64 0 -82 -73 q-23 -97 -23 -261z" />
<glyph unicode="q" horiz-adv-x="827" d="M33 559q0 156 9.5 229t33.5 152q57 197 252 197q133 0 190 -95v86h262v-1312q0 -20 1 -42.5t3 -40.5t3.5 -33t2.5 -24t1 -10h-265l-14 23v389q-52 -86 -190 -86q-184 0 -244 176q-45 136 -45 391zM301 567q0 -198 14 -274q14 -78 93 -78q72 0 90 80q16 70 16 276 q0 197 -16 265q-16 67 -82 67q-85 0 -97 -84q-18 -126 -18 -252z" />
<glyph unicode="r" horiz-adv-x="618" d="M53 0v1126h271v-133q9 63 68.5 105.5t131.5 42.5q67 0 99 -11v-258q-69 21 -144 21q-77 0 -114 -47.5t-37 -177.5v-668h-275z" />
<glyph unicode="s" horiz-adv-x="745" d="M20 354h254q0 -6 1 -18.5t2 -32.5t2 -33q6 -67 92 -67q40 0 65 24t25 70q0 53 -23.5 84.5t-81.5 54.5q-44 18 -131 60q-107 50 -151.5 131t-44.5 211q0 138 84.5 221.5t242.5 83.5q286 0 330 -203q4 -22 8 -87t4 -87h-247q0 64 -5 84q-8 68 -79 68q-84 0 -84 -87 q0 -42 19.5 -69.5t68.5 -50.5q13 -6 68 -32t85 -42q108 -54 152.5 -129t44.5 -203q0 -156 -93.5 -238.5t-250.5 -82.5q-169 0 -252.5 55.5t-97.5 171.5q-7 65 -7 143z" />
<glyph unicode="t" horiz-adv-x="559" d="M4 887v239h100l11 211l266 6v-217h158v-239h-160v-592q0 -44 20.5 -60t57.5 -16q39 0 69 6v-219q-60 -14 -159 -14q-267 0 -267 254v641h-96z" />
<glyph unicode="u" d="M45 1126h1h1h1h1h1h1h1h1h1h1h1h1h1h1h1h1h1h1h1h1h1h1h1h1h1h1h1h1h1h1h1h1h1h1h1h1h1h1h1h1h1h1h1h1h1h1h1h1h1h1h1h1h1h2h1h1h1h1h1h1h1h2h1h1h1h1h1h2h1h1h1h2h1h1h1h2h1h1h1h2h1h1h2h1h1h1h2h1h1h2h1h2h1h1h2h1h1h2h1h2h1h1h2h1h2h1h2h1h2h1h2h1h1h2h1h2h1h2h2h1h2 h1h2h1h2h1h2h1h2h2h1h2h1h2h2h1h2h1h2h2h1h2h2h1h2h2h1h2h2h1h2h2h1h2h2h1h2h2h2h1h2h2h2h1h2h2h2h1h2h2h2h2h1h2h2h2h2h2h1h2h2h2h2h2h1h2h2h2h2h2h2h2h8q3 0 3 -817q0 -50 19 -71t60 -21q88 0 88 125v784h273v-991q0 -103 4 -135h-260l-8 70q-29 -37 -81.5 -57.5 t-115.5 -20.5q-254 0 -254 291q0 841 -2 843z" />
<glyph unicode="v" horiz-adv-x="827" d="M2 1126h274l142 -807l141 807h266l-235 -1126h-346z" />
<glyph unicode="w" horiz-adv-x="1253" d="M2 1126h279l104 -827l104 827h281l119 -827l90 827h272l-196 -1126h-324q-69 403 -92 532l-8 117q-2 -105 -4 -117l-95 -532h-327z" />
<glyph unicode="x" horiz-adv-x="784" d="M2 0l260 573l-248 553h267l112 -270l113 270h260l-246 -551l256 -575h-266l-123 293l-125 -293h-260z" />
<glyph unicode="y" horiz-adv-x="829" d="M2 1126h279q2 -13 69 -362.5t68 -362.5q1 7 35.5 183.5t67.5 351.5t34 190h272l-368 -1460h-281l92 365z" />
<glyph unicode="z" horiz-adv-x="704" d="M23 0v227l370 660h-360v239h647v-231l-371 -657h377v-238h-663z" />
<glyph unicode="{" horiz-adv-x="616" d="M33 621v237q50 1 84 15t51.5 40.5t25 56.5t7.5 70q0 60 -22.5 165t-22.5 181q0 108 72 178t196 70h160v-223q-106 3 -144 -27.5t-34 -119.5q1 -24 19.5 -129.5t18.5 -161.5q0 -94 -43 -157.5t-137 -76.5q51 -5 88 -30.5t56 -64.5t27.5 -79.5t8.5 -85.5q0 -70 -18.5 -223 t-19.5 -223q-4 -85 34 -114.5t144 -27.5v-225h-150q-140 0 -209 72.5t-69 189.5q0 87 21.5 254.5t21.5 237.5q0 95 -37.5 148t-128.5 53z" />
<glyph unicode="|" horiz-adv-x="512" d="M150 -410v2048h215v-2048h-215z" />
<glyph unicode="}" horiz-adv-x="616" d="M29 -109q106 -2 145 27.5t35 114.5q-2 67 -21.5 220.5t-19.5 225.5q0 45 8.5 85.5t27.5 79.5t56 64.5t88 30.5q-93 13 -136.5 76.5t-43.5 157.5q0 54 19 158.5t20 132.5q4 89 -34 119.5t-144 27.5v223h159q124 0 196.5 -70.5t72.5 -177.5q0 -76 -21.5 -181t-21.5 -165 q0 -40 7 -70t24.5 -56.5t51 -40.5t83.5 -15v-237q-91 0 -127.5 -53t-36.5 -148q0 -70 20.5 -237.5t20.5 -254.5q0 -117 -68.5 -189.5t-210.5 -72.5h-149v225z" />
<glyph unicode="~" horiz-adv-x="929" d="M4 698q69 287 291 287q62 0 111.5 -24t103.5 -78q4 -4 21.5 -22t23 -23t20 -17t24 -16t23.5 -8t29 -4q42 0 69.5 36t37.5 91l162 -95q-29 -124 -99 -190t-172 -66q-62 0 -110 20.5t-103 74.5q-13 12 -36 35t-35 32.5t-31.5 19t-40.5 9.5q-77 0 -105 -135z" />
<glyph unicode="&#xa1;" horiz-adv-x="432" d="M66 0l32 1190h242l29 -1190h-303zM78 1280v356h278v-356h-278z" />
<glyph unicode="&#xa2;" horiz-adv-x="815" d="M37 809q0 225 49 365q56 166 250 200v131h160v-129q227 -25 268 -194q29 -118 29 -271h-261q0 107 -4 144q-9 98 -90 98q-82 0 -92 -84q-12 -98 -12 -260q0 -198 8 -274q6 -56 28 -81.5t66 -25.5q39 0 60 23t28 79q8 62 8 166h261q0 -164 -37 -276q-25 -77 -92 -127.5 t-168 -63.5v-143h-160v145q-187 28 -252 189q-47 132 -47 389z" />
<glyph unicode="&#xa3;" horiz-adv-x="845" d="M37 0v256q90 28 140 80t65 137q11 59 -11 125h-176v229h109q-31 66 -47.5 104.5t-35.5 109.5t-24 139q-4 89 0 178q2 55 25.5 105.5t68 93.5t119 68.5t170.5 25.5q348 0 361 -310v-337h-269v288q-3 67 -26 94t-70 27q-85 0 -94 -100q-7 -84 0 -160q17 -186 84 -326h334 v-229h-277q16 -74 11 -123q-6 -92 -52 -151t-112 -78h469v-246h-762z" />
<glyph unicode="&#xa4;" horiz-adv-x="919" d="M20 623v157h78v70h-78v158h84q8 293 25 372q62 269 363 269q298 0 360 -277q25 -86 29 -309h-287v205q-6 143 -100 143q-50 0 -73 -32t-28 -97q-4 -41 -4 -274h172v-158h-174v-70h174v-157h-172q0 -238 4 -277q5 -68 28.5 -101.5t72.5 -33.5q94 0 100 141v195h287 q-4 -152 -19 -242q-27 -158 -116 -239.5t-252 -81.5q-164 0 -253 80t-118 233q-8 52 -17 326h-86z" />
<glyph unicode="&#xa5;" horiz-adv-x="995" d="M0 1634h307q176 -567 182 -655q3 39 52 203t97 308l48 144h311l-356 -985v-69h303v-172h-311v-62h311v-172h-303v-174h-303v174h-291v172h299v62h-299v172h291v61z" />
<glyph unicode="&#xa6;" horiz-adv-x="512" d="M147 -410v865h218v-865h-218zM147 731v907h218v-907h-218z" />
<glyph unicode="&#xa7;" horiz-adv-x="708" d="M38 879.5q0 51.5 7 83.5q27 114 127 165q-82 65 -88 187q-2 13 -2 51t2 53q7 104 82 160.5t192 56.5q58 0 103.5 -10.5t85 -35.5t63 -71.5t27.5 -113.5q2 -16 2 -113h-186q0 88 -2 92q-3 89 -76 89q-72 0 -80 -70v-74q2 -47 19.5 -75t74.5 -58q11 -7 109 -57 q127 -66 155 -183q10 -41 8.5 -98t-12.5 -98q-35 -115 -143 -150q161 -95 172 -250q2 -17 2 -59t-2 -59q-6 -130 -84.5 -195t-220.5 -65q-66 0 -118.5 12t-97.5 40.5t-73 81t-35 126.5q-2 18 -2 118h229v-98q3 -98 95 -98q90 0 90 94v84q-3 49 -26.5 81t-80.5 64 q-2 1 -72.5 45t-105.5 64q-113 71 -131 192q-7 40 -7 91.5zM250 866q3 -32 14 -51q8 -19 30.5 -38t42.5 -31t54 -29q24 1 43 27.5t25 64.5q4 20 1 53t-11 47q-25 54 -132 101q-22 -2 -40.5 -27t-22.5 -61q-7 -24 -4 -56z" />
<glyph unicode="&#xa8;" horiz-adv-x="768" d="M111 1200v258h217v-258h-217zM440 1200v258h219v-258h-219z" />
<glyph unicode="&#xa9;" horiz-adv-x="1060" d="M37 911q-3 104 0 293q4 219 134 330t359 111q227 0 358.5 -110t135.5 -331q3 -129 0 -293q-3 -230 -127.5 -350.5t-361.5 -120.5q-238 0 -366.5 121.5t-131.5 349.5zM145 944q3 -397 385 -397q203 0 292.5 95t92.5 302v262q-9 324 -385 324q-187 0 -284.5 -82.5 t-100.5 -239.5v-264zM287 1020q0 132 6 182q6 76 79.5 123t174.5 47q105 0 164.5 -51.5t64.5 -126.5q2 -29 2 -104h-157v77q-9 64 -78 64q-44 0 -67 -21.5t-25 -58.5q-2 -23 -2 -127q0 -23 1 -72t1 -55q3 -44 23.5 -63t66.5 -19q40 0 60.5 17.5t21.5 58.5q2 31 2 82h155 q-4 -50 -4 -125q-6 -76 -73 -121t-171 -45q-108 0 -169.5 43.5t-69.5 120.5q-6 95 -6 174z" />
<glyph unicode="&#xaa;" horiz-adv-x="784" d="M25 739q-6 79 0 166q11 114 86 188.5t217 100.5q60 11 137 18q0 16 1 67t1 69q-2 39 -19.5 57t-58.5 18q-59 0 -67 -65q-9 -50 -9 -107h-254q-3 93 17 179q20 92 103 150t220 58q321 0 328 -258q3 -172 0 -350q-2 -86 -2 -287q0 -180 14 -200h-264l-6 86 q-63 -97 -213 -97q-42 0 -79 10t-71.5 32t-56 64t-24.5 101zM29 270v219h723v-219h-723zM295 911q-4 -48 2 -88q12 -62 63 -73q80 -8 99 49q6 22 6 121v116q-10 2 -28 1.5t-27 0.5q-46 0 -78 -32q-34 -31 -37 -95z" />
<glyph unicode="&#xab;" horiz-adv-x="845" d="M33 608v201l383 377v-293l-168 -184l168 -183v-297zM430 608v201l381 377v-293l-168 -184l168 -183v-297z" />
<glyph unicode="&#xac;" horiz-adv-x="747" d="M10 10v260h328v326q-84 14 -140.5 78t-56.5 149q0 86 57.5 152t141.5 78v344h-330v231h727v-231h-334v-344q84 -12 141.5 -78t57.5 -152t-58 -150.5t-143 -76.5v-326h336v-260h-727zM195 823q0 -43 18 -80q12 2 96 25q-54 -69 -57 -74q40 -35 86 -43v97l31 67l30 -67v-97 q51 9 88 43q-8 13 -29 38.5t-28 35.5q84 -23 96 -25q21 40 21 80q0 42 -23 86q-36 -8 -94 -24q8 12 28 35.5t27 33.5q-34 34 -84 43v-96l-32 -70l-29 70v96q-42 -8 -86 -43q8 -13 30 -39t29 -36q-51 17 -98 24q-20 -36 -20 -80z" />
<glyph unicode="&#xad;" horiz-adv-x="614" d="M18 657v289h578v-289h-578z" />
<glyph unicode="&#xae;" horiz-adv-x="1060" d="M37 911q-3 104 0 293q4 219 134 330t359 111q227 0 358.5 -110t135.5 -331q3 -129 0 -293q-3 -230 -127.5 -350.5t-361.5 -120.5q-238 0 -366.5 121.5t-131.5 349.5zM145 944q1 -199 99 -298t286 -99q202 0 292 95.5t93 301.5v262q-9 324 -385 324q-187 0 -284.5 -82.5 t-100.5 -239.5v-264zM270 702v652h291q124 0 187 -60q61 -51 61 -139t-35 -133q-24 -38 -84 -57l119 -263h-184l-99 232h-67v-232h-189zM459 1044q116 0 145 29q17 24 17 57q0 42 -19 58q-25 29 -143 29v-173z" />
<glyph unicode="&#xaf;" horiz-adv-x="768" d="M104 1227v180h558v-180h-558z" />
<glyph unicode="&#xb0;" horiz-adv-x="534" d="M27 1311q0 103 70.5 175.5t168.5 72.5q100 0 171 -72.5t71 -175.5t-71 -175.5t-171 -72.5q-98 0 -168.5 72.5t-70.5 175.5zM174 1311q0 -39 26.5 -65.5t65.5 -26.5t65.5 26.5t26.5 65.5q0 38 -27 65t-65 27t-65 -27t-27 -65z" />
<glyph unicode="&#xb1;" horiz-adv-x="731" d="M23 823v187h233v182h219v-182h232v-187h-232v-174h-219v174h-233zM27 418v184h678v-184h-678z" />
<glyph unicode="&#xb2;" horiz-adv-x="663" d="M68 795v135q19 38 61 85t85.5 89t85.5 87t68.5 94t26.5 95v50q0 40 -17 56.5t-54 16.5q-30 0 -44.5 -14.5t-17.5 -50.5q-2 -16 -2 -101h-190q0 90 2 113q6 83 74.5 135.5t193.5 52.5q245 0 256 -188q1 -12 0.5 -42.5t-2.5 -43.5q-2 -56 -33.5 -114.5t-70.5 -101.5 t-89.5 -101t-76.5 -101h268v-151h-524z" />
<glyph unicode="&#xb3;" horiz-adv-x="677" d="M68 1055h192v-99q0 -28 19.5 -38.5t58.5 -10.5q41 0 57.5 16.5t16.5 51.5v84q0 41 -22 57t-91 19l-100 2v143q104 2 108 2q56 6 75 23t19 65v78q0 29 -15 41t-48 12q-66 0 -66 -53q0 -14 -0.5 -33t-1.5 -33v-14h-184q0 6 6 111q6 71 71.5 116t180.5 45q126 0 187.5 -47.5 t64.5 -124.5v-67q-2 -74 -43 -121t-143 -57q60 -1 102 -15.5t63 -37t30 -44t11 -45.5q3 -50 -2 -106q-6 -95 -76.5 -144t-199.5 -49q-121 0 -192.5 43t-75.5 123z" />
<glyph unicode="&#xb4;" horiz-adv-x="768" d="M221 1200l139 299h291l-176 -299h-254z" />
<glyph unicode="&#xb6;" horiz-adv-x="817" d="M29 1036q0 279 24 408q21 89 87.5 143.5t162.5 54.5q70 0 129.5 -24.5t83.5 -69.5l16 86h238v-1845h-100v1638h-52v-1638h-104v729q-30 -42 -85.5 -65t-119.5 -23q-104 0 -172.5 52.5t-85.5 146.5q-22 148 -22 407zM340 1034q0 -203 14 -307q12 -70 78 -70q77 0 80 88 q2 33 2 308v270q0 46 -21.5 68t-54.5 22q-38 0 -56.5 -18t-25.5 -68q-16 -115 -16 -293z" />
<glyph unicode="&#xb7;" horiz-adv-x="440" d="M63 627v368h312v-368h-312z" />
<glyph unicode="&#xb8;" horiz-adv-x="768" d="M231 -256q65 -8 105 -6.5t62 16.5t29 30t7 34q0 78 -110 78v104h149v-49q74 -6 119 -49.5t45 -114.5q0 -110 -105 -159.5t-301 -18.5v135z" />
<glyph unicode="&#xb9;" horiz-adv-x="587" d="M68 1395v135q87 1 141.5 34t71.5 70h143v-839h-191v610z" />
<glyph unicode="&#xba;" horiz-adv-x="786" d="M29 258v231h731v-231h-731zM29 1094q0 90 11 181t28 142q12 44 35.5 82t61 70.5t95 51.5t129.5 19q144 0 225 -64.5t101 -170.5q33 -109 33 -311q0 -207 -35 -322q-23 -106 -106 -171.5t-222 -65.5q-145 0 -224 66.5t-102 170.5q-30 113 -30 322zM295 1090 q0 -179 16 -267q12 -69 78 -69q65 0 78 71q14 93 14 265q0 188 -12 256q-7 37 -27 53t-55 16q-67 0 -76 -69q-16 -56 -16 -256z" />
<glyph unicode="&#xbb;" horiz-adv-x="845" d="M39 242v297l164 182l-164 182v295l383 -377v-203zM434 242v297l164 182l-164 182v295l383 -377v-203z" />
<glyph unicode="&#xbc;" horiz-adv-x="1155" d="M10 1395v135q87 1 142.5 34t70.5 70h146v-839h-191v610zM240 0q149 525 245 864l213 770h103q-146 -510 -238 -837l-221 -797h-102zM532 193v147l293 496h207v-502h88v-144h-88v-190h-188v193h-312zM711 334h133v239z" />
<glyph unicode="&#xbd;" horiz-adv-x="1150" d="M8 1395v135q87 1 142.5 34t72.5 70h144v-839h-191v610zM207 0q150 525 246 864l213 770h102q-148 -510 -240 -837l-219 -797h-102zM575 0v135q20 38 62 85t86 89.5t85.5 87.5t68 94t26.5 95v49q0 40 -17.5 57t-54.5 17q-28 0 -42.5 -15t-18.5 -51q-2 -16 -2 -100h-188 q0 89 2 112q6 83 74 136t194 53q243 0 254 -189q1 -12 0.5 -42.5t-2.5 -43.5q-3 -56 -34.5 -115t-70.5 -101.5t-89.5 -101t-76.5 -101.5h269v-150h-525z" />
<glyph unicode="&#xbe;" horiz-adv-x="1288" d="M25 1055h192v-99q0 -28 19 -38.5t57 -10.5q43 0 59.5 16.5t16.5 51.5v84q0 41 -22 57t-91 19l-100 2v143q104 2 108 2q56 6 75 23t19 65v78q0 53 -63 53q-66 0 -66 -53q-2 -31 -2 -80h-184q0 1 1 21.5t2 47.5t1 42q8 71 73.5 116t180.5 45q125 0 186.5 -48t63.5 -124 q2 -27 2 -67q-2 -74 -43 -121t-143 -57q60 -1 102 -15.5t63 -37t30 -44t11 -45.5q3 -50 -2 -106q-6 -95 -76.5 -144t-199.5 -49q-122 0 -193 42.5t-75 123.5zM377 0q150 525 246 864l213 770h102q-146 -510 -238 -837l-221 -797h-102zM670 193v147l293 496h204v-502h90v-144 h-90v-190h-188v193h-309zM848 334h131v241z" />
<glyph unicode="&#xbf;" horiz-adv-x="800" d="M35 254q-5 62 0 192q3 61 27 120.5t58 105.5t72.5 103t70 112t51 134.5t16.5 168.5h237q5 -94 -5.5 -175t-30.5 -138.5t-45.5 -107t-52.5 -90t-50 -77.5t-39 -80t-18 -88q-1 -17 -1 -39.5t0.5 -47t0.5 -32.5q6 -98 92 -98q43 0 66.5 24t25.5 66q2 18 2 150h264 q0 -163 -6 -209q-9 -122 -108 -192t-263 -70q-342 0 -364 268zM303 1278v356h283v-356h-283z" />
<glyph unicode="&#xc0;" horiz-adv-x="935" d="M0 0l272 1634h420l244 -1634h-303l-53 395h-224l-57 -395h-299zM195 1995h292l142 -299h-258zM385 637h168q-61 475 -61 483l-15 248q-10 -160 -18 -248z" />
<glyph unicode="&#xc1;" horiz-adv-x="935" d="M0 0l272 1634h420l244 -1634h-303l-53 395h-224l-57 -395h-299zM328 1696l139 299h291l-176 -299h-254zM385 637h168q-61 475 -61 483l-15 248q-10 -160 -18 -248z" />
<glyph unicode="&#xc2;" horiz-adv-x="935" d="M0 0l272 1634h420l244 -1634h-303l-53 395h-224l-57 -395h-299zM172 1698l156 299h282l156 -299h-225l-74 135l-76 -135h-219zM385 637h168q-61 475 -61 483l-15 248q-10 -160 -18 -248z" />
<glyph unicode="&#xc3;" horiz-adv-x="935" d="M0 0l272 1634h420l244 -1634h-303l-53 395h-224l-57 -395h-299zM154 1706q5 130 55 205.5t133 75.5q84 0 141 -62q38 -44 74 -41q25 1 36.5 22.5t14.5 71.5h174q-4 -137 -54.5 -210.5t-133.5 -73.5q-40 0 -66.5 8.5t-56.5 38.5q-23 22 -33 30.5t-25 15.5t-32 7 q-43 -3 -49 -88h-178zM385 637h168q-61 475 -61 483l-15 248q-10 -160 -18 -248z" />
<glyph unicode="&#xc4;" horiz-adv-x="935" d="M0 0l272 1634h420l244 -1634h-303l-53 395h-224l-57 -395h-299zM207 1698v258h217v-258h-217zM385 637h168q-61 475 -61 483l-15 248q-10 -160 -18 -248zM537 1698v258h219v-258h-219z" />
<glyph unicode="&#xc5;" horiz-adv-x="935" d="M0 0l272 1634h33q-63 69 -63 170q0 103 69.5 173.5t169.5 70.5t171 -71t71 -173q0 -101 -66 -170h35l244 -1634h-303l-53 395h-224l-57 -395h-299zM385 637h168q-61 475 -61 483l-15 248q-10 -160 -18 -248zM406 1804q0 -36 21.5 -61t53.5 -25q34 0 58 25.5t24 60.5 q0 34 -24.5 60t-57.5 26q-32 0 -53.5 -25.5t-21.5 -60.5z" />
<glyph unicode="&#xc6;" horiz-adv-x="1214" d="M-2 0l334 1634h866v-280h-373v-398h340v-266h-340v-414h375v-276h-668v373h-174l-61 -373h-299zM397 625h133v729q0 -2 -5.5 -50t-11 -92t-7.5 -53z" />
<glyph unicode="&#xc7;" horiz-adv-x="940" d="M37 825q0 169 10 284.5t37 242.5q31 148 132.5 221.5t281.5 73.5q184 0 278.5 -86t116.5 -254q16 -125 16 -273h-291q0 129 -20 246q-6 39 -34 62.5t-72 23.5q-97 0 -119 -90q-23 -97 -23 -449q0 -339 23 -469q10 -52 42 -77t77 -25q103 0 116 109t13 225h290 q0 -195 -18 -299q-25 -135 -105 -211.5t-225 -93.5v-35q74 -6 119 -49.5t45 -114.5q0 -110 -104.5 -159.5t-300.5 -18.5v135q65 -8 105 -6.5t61.5 16.5t28.5 30t7 34q0 78 -110 78v90q-252 22 -320 247q-57 182 -57 592z" />
<glyph unicode="&#xc8;" d="M63 0v1634h721v-280h-422v-398h394v-266h-394v-414h426v-276h-725zM154 1995h292l142 -299h-258z" />
<glyph unicode="&#xc9;" d="M63 0v1634h721v-280h-422v-398h394v-266h-394v-414h426v-276h-725zM291 1698l139 299h291l-176 -299h-254z" />
<glyph unicode="&#xca;" d="M63 0v1634h721v-280h-422v-398h394v-266h-394v-414h426v-276h-725zM131 1698l156 299h282l156 -299h-225l-74 135l-76 -135h-219z" />
<glyph unicode="&#xcb;" d="M63 0v1634h721v-280h-422v-398h394v-266h-394v-414h426v-276h-725zM154 1698v258h217v-258h-217zM483 1698v258h219v-258h-219z" />
<glyph unicode="&#xcc;" horiz-adv-x="436" d="M-66 1995h293l142 -299h-258zM63 0v1634h312v-1634h-312z" />
<glyph unicode="&#xcd;" horiz-adv-x="436" d="M63 0v1634h312v-1634h-312zM82 1698l139 299h291l-176 -299h-254z" />
<glyph unicode="&#xce;" horiz-adv-x="436" d="M-78 1698l156 299h282l156 -299h-225l-74 135l-76 -135h-219zM63 0v1634h312v-1634h-312z" />
<glyph unicode="&#xcf;" horiz-adv-x="436" d="M-55 1696v258h217v-258h-217zM63 0v1634h312v-1634h-312zM274 1696v258h220v-258h-220z" />
<glyph unicode="&#xd0;" horiz-adv-x="942" d="M18 670v286h52v678h426q255 0 333 -151q76 -113 76 -631q0 -293 -14 -457t-60 -239q-27 -49 -62.5 -82t-95.5 -53.5t-141 -20.5h-462v670h-52zM369 236h131q82 0 102 81q9 44 14 234t5 301q0 81 -6.5 238t-14.5 192q-22 96 -113 96h-118v-422h114v-286h-114v-434z" />
<glyph unicode="&#xd1;" horiz-adv-x="946" d="M63 0v1634h285l256 -798v798h279v-1634h-283l-258 815v-815h-279zM186 1706q5 129 55.5 205t133.5 76q84 0 141 -62q38 -44 74 -41q25 1 36.5 22.5t14.5 71.5h174q-4 -137 -54.5 -210.5t-133.5 -73.5q-40 0 -66.5 8.5t-56.5 38.5q-23 22 -33 30.5t-25 15.5t-32 7 q-43 -3 -49 -88h-179z" />
<glyph unicode="&#xd2;" horiz-adv-x="960" d="M37 821q0 376 26 498q72 328 416 328q184 0 282.5 -76.5t133.5 -233.5q29 -139 29 -506q0 -198 -7 -305.5t-26 -218.5q-56 -325 -412 -325q-180 0 -276.5 78t-130.5 225q-35 149 -35 536zM188 1997h293l142 -299h-258zM342 813q0 -373 29 -477q13 -46 38 -69t74 -23 q87 0 115 94q27 89 27 479q0 302 -25 455q-9 60 -36 85t-81 25q-55 0 -79 -25.5t-39 -86.5q-23 -104 -23 -457z" />
<glyph unicode="&#xd3;" horiz-adv-x="960" d="M37 821q0 376 26 498q72 328 416 328q184 0 282.5 -76.5t133.5 -233.5q29 -139 29 -506q0 -198 -7 -305.5t-26 -218.5q-56 -325 -412 -325q-180 0 -276.5 78t-130.5 225q-35 149 -35 536zM342 813q0 -373 29 -477q13 -46 38 -69t74 -23q87 0 115 94q27 89 27 479 q0 302 -25 455q-9 60 -36 85t-81 25q-55 0 -79 -25.5t-39 -86.5q-23 -104 -23 -457zM354 1698l140 299h290l-176 -299h-254z" />
<glyph unicode="&#xd4;" horiz-adv-x="960" d="M37 821q0 376 26 498q72 328 416 328q184 0 282.5 -76.5t133.5 -233.5q29 -139 29 -506q0 -198 -7 -305.5t-26 -218.5q-56 -325 -412 -325q-180 0 -276.5 78t-130.5 225q-35 149 -35 536zM184 1698l156 299h283l155 -299h-225l-74 135l-76 -135h-219zM342 813 q0 -373 29 -477q13 -46 38 -69t74 -23q87 0 115 94q27 89 27 479q0 302 -25 455q-9 60 -36 85t-81 25q-55 0 -79 -25.5t-39 -86.5q-23 -104 -23 -457z" />
<glyph unicode="&#xd5;" horiz-adv-x="960" d="M37 821q0 376 26 498q72 328 416 328q184 0 282.5 -76.5t133.5 -233.5q29 -139 29 -506q0 -198 -7 -305.5t-26 -218.5q-56 -325 -412 -325q-180 0 -276.5 78t-130.5 225q-35 149 -35 536zM170 1706q5 130 55 205.5t133 75.5q85 0 142 -62q38 -44 73 -41q25 2 37 23.5 t15 70.5h174q-4 -137 -55 -210.5t-134 -73.5q-40 0 -66.5 8.5t-56.5 38.5q-23 22 -33 30.5t-25 15.5t-32 7q-43 -3 -49 -88h-178zM342 813q0 -373 29 -477q13 -46 38 -69t74 -23q87 0 115 94q27 89 27 479q0 302 -25 455q-9 60 -36 85t-81 25q-55 0 -79 -25.5t-39 -86.5 q-23 -104 -23 -457z" />
<glyph unicode="&#xd6;" horiz-adv-x="960" d="M37 821q0 376 26 498q72 328 416 328q184 0 282.5 -76.5t133.5 -233.5q29 -139 29 -506q0 -198 -7 -305.5t-26 -218.5q-56 -325 -412 -325q-180 0 -276.5 78t-130.5 225q-35 149 -35 536zM213 1698v258h217v-258h-217zM342 813q0 -373 29 -477q13 -46 38 -69t74 -23 q87 0 115 94q27 89 27 479q0 302 -25 455q-9 60 -36 85t-81 25q-55 0 -79 -25.5t-39 -86.5q-23 -104 -23 -457zM543 1698v258h219v-258h-219z" />
<glyph unicode="&#xd7;" horiz-adv-x="681" d="M57 623l146 145l-146 141l142 148l143 -144l145 144l140 -148l-146 -141l146 -145l-140 -146l-145 146l-143 -146z" />
<glyph unicode="&#xd8;" horiz-adv-x="960" d="M37 821q0 376 26 498q72 328 416 328q131 0 215 -37l17 49h106l-35 -107q82 -71 113 -215q29 -139 29 -506q0 -198 -7 -305.5t-26 -218.5q-56 -325 -412 -325q-126 0 -205 36l-34 -104h-107q3 10 8.5 26.5t17.5 51.5t19.5 58t7.5 22q-83 77 -114 213q-35 149 -35 536z M342 813q0 -161 6 -278q16 47 42 125t80.5 242.5t91 273.5t36.5 108q-10 54 -37 76t-78 22q-55 0 -79 -25.5t-39 -86.5q-23 -104 -23 -457zM371 336q13 -46 38 -69t74 -23q87 0 115 94q27 89 27 479q0 139 -7 262z" />
<glyph unicode="&#xd9;" horiz-adv-x="944" d="M53 373v1261h297v-1253q0 -137 123 -137q56 0 86.5 35.5t30.5 99.5v1255h299v-1265q0 -181 -110.5 -283t-301.5 -102q-192 0 -308 99t-116 290zM178 1997h293l141 -299h-258z" />
<glyph unicode="&#xda;" horiz-adv-x="944" d="M53 373v1261h297v-1253q0 -137 123 -137q56 0 86.5 35.5t30.5 99.5v1255h299v-1265q0 -181 -110.5 -283t-301.5 -102q-192 0 -308 99t-116 290zM340 1698l139 299h291l-176 -299h-254z" />
<glyph unicode="&#xdb;" horiz-adv-x="944" d="M53 373v1261h297v-1253q0 -137 123 -137q56 0 86.5 35.5t30.5 99.5v1255h299v-1265q0 -181 -110.5 -283t-301.5 -102q-192 0 -308 99t-116 290zM178 1698l156 299h282l156 -299h-225l-74 135l-76 -135h-219z" />
<glyph unicode="&#xdc;" horiz-adv-x="944" d="M53 373v1261h297v-1253q0 -137 123 -137q56 0 86.5 35.5t30.5 99.5v1255h299v-1265q0 -181 -110.5 -283t-301.5 -102q-192 0 -308 99t-116 290zM201 1696v258h217v-258h-217zM530 1696v258h220v-258h-220z" />
<glyph unicode="&#xdd;" horiz-adv-x="985" d="M0 1634h305q160 -598 178 -682l207 682h295l-352 -1022v-612h-299v606zM334 1696l139 299h291l-176 -299h-254z" />
<glyph unicode="&#xde;" horiz-adv-x="933" d="M61 0v1634h314v-288h170q230 0 297 -183q65 -109 65 -327q0 -224 -69 -330q-71 -170 -289 -176l-180 -2v-328h-308zM369 582h116q54 0 79 34t30 105q6 30 6 102q0 63 -6 90q-4 89 -29 121.5t-76 32.5h-120v-485z" />
<glyph unicode="&#xdf;" horiz-adv-x="1220" d="M10 891v235h101v209q0 145 105 227.5t288 82.5q153 0 250.5 -80.5t97.5 -214.5q0 -51 -16.5 -98.5t-39.5 -84t-46 -72t-39.5 -77.5t-16.5 -86q0 -82 27.5 -118.5t103.5 -74.5q15 -7 66.5 -34t85.5 -43q118 -57 169.5 -141t51.5 -214q0 -149 -92 -236t-275 -87 q-179 0 -268.5 56t-101.5 177q-1 11 -8 160h280q0 -21 4 -115q2 -36 25 -56t65 -20q93 0 93 111q0 72 -21 108.5t-84 71.5q-108 60 -131 74q-59 35 -88.5 54.5t-63.5 50t-48.5 62t-24.5 78t-10 109.5q0 66 18.5 125t41.5 95t41.5 82.5t18.5 90.5q0 61 -18.5 91t-65.5 30 q-53 0 -74.5 -30t-21.5 -91v-1298h-278v891h-101z" />
<glyph unicode="&#xe0;" horiz-adv-x="806" d="M27 205q-7 83 0 180q7 120 93.5 197t231.5 104q89 14 144 14q0 101 -2 136q-3 77 -80 77q-51 0 -73 -28t-22 -88v-64h-253v84q0 162 84 243t268 81q327 0 340 -258v-373q-2 -88 -2 -309q0 -181 14 -201h-260q-3 0 -6.5 30t-3.5 52q-73 -90 -228 -90q-98 0 -168.5 50 t-76.5 163zM129 1499h293l141 -299h-258zM299 360q0 -69 4 -102q8 -53 80 -53q36 0 65.5 20t36.5 60q4 26 6 48t3 50t2 47q1 10 1 27t-0.5 35t-0.5 22q-41 0 -66 -4q-65 -13 -94 -39q-24 -21 -30.5 -45t-6.5 -66z" />
<glyph unicode="&#xe1;" horiz-adv-x="806" d="M27 205q-7 83 0 180q7 120 93.5 197t231.5 104q89 14 144 14q0 101 -2 136q-3 77 -80 77q-51 0 -73 -28t-22 -88v-64h-253v84q0 162 84 243t268 81q327 0 340 -258v-373q-2 -88 -2 -309q0 -181 14 -201h-260q-3 0 -6.5 30t-3.5 52q-73 -90 -228 -90q-98 0 -168.5 50 t-76.5 163zM264 1200l139 299h291l-176 -299h-254zM299 360q0 -69 4 -102q8 -53 80 -53q36 0 65.5 20t36.5 60q4 26 6 48t3 50t2 47q1 10 1 27t-0.5 35t-0.5 22q-41 0 -66 -4q-65 -13 -94 -39q-24 -21 -30.5 -45t-6.5 -66z" />
<glyph unicode="&#xe2;" horiz-adv-x="806" d="M27 205q-7 83 0 180q7 120 93.5 197t231.5 104q89 14 144 14q0 101 -2 136q-3 77 -80 77q-51 0 -73 -28t-22 -88v-64h-253v84q0 162 84 243t268 81q327 0 340 -258v-373q-2 -88 -2 -309q0 -181 14 -201h-260q-3 0 -6.5 30t-3.5 52q-73 -90 -228 -90q-98 0 -168.5 50 t-76.5 163zM125 1202l156 299h282l156 -299h-225l-74 135l-76 -135h-219zM299 360q0 -69 4 -102q8 -53 80 -53q36 0 65.5 20t36.5 60q4 26 6 48t3 50t2 47q1 10 1 27t-0.5 35t-0.5 22q-41 0 -66 -4q-65 -13 -94 -39q-24 -21 -30.5 -45t-6.5 -66z" />
<glyph unicode="&#xe3;" horiz-adv-x="806" d="M27 205q-7 83 0 180q7 120 93.5 197t231.5 104q89 14 144 14q0 101 -2 136q-3 77 -80 77q-51 0 -73 -28t-22 -88v-64h-253v84q0 162 84 243t268 81q327 0 340 -258v-373q-2 -88 -2 -309q0 -181 14 -201h-260q-3 0 -6.5 30t-3.5 52q-73 -90 -228 -90q-98 0 -168.5 50 t-76.5 163zM94 1208q5 129 55.5 205t133.5 76q84 0 141 -62q38 -44 74 -41q25 1 36.5 23t14.5 72h174q-4 -137 -54.5 -211t-133.5 -74q-40 0 -66.5 8.5t-56.5 38.5q-23 22 -33 30.5t-25 15.5t-32 7q-44 -3 -50 -88h-178zM299 360q0 -69 4 -102q8 -53 80 -53q36 0 65.5 20 t36.5 60q4 26 6 48t3 50t2 47q1 10 1 27t-0.5 35t-0.5 22q-41 0 -66 -4q-65 -13 -94 -39q-24 -21 -30.5 -45t-6.5 -66z" />
<glyph unicode="&#xe4;" horiz-adv-x="806" d="M27 205q-7 83 0 180q7 120 93.5 197t231.5 104q89 14 144 14q0 101 -2 136q-3 77 -80 77q-51 0 -73 -28t-22 -88v-64h-253v84q0 162 84 243t268 81q327 0 340 -258v-373q-2 -88 -2 -309q0 -181 14 -201h-260q-3 0 -6.5 30t-3.5 52q-73 -90 -228 -90q-98 0 -168.5 50 t-76.5 163zM137 1200v258h217v-258h-217zM299 360q0 -69 4 -102q8 -53 80 -53q36 0 65.5 20t36.5 60q4 26 6 48t3 50t2 47q1 10 1 27t-0.5 35t-0.5 22q-41 0 -66 -4q-65 -13 -94 -39q-24 -21 -30.5 -45t-6.5 -66zM467 1200v258h219v-258h-219z" />
<glyph unicode="&#xe5;" horiz-adv-x="806" d="M27 205q-7 83 0 180q7 120 93.5 197t231.5 104q89 14 144 14q0 101 -2 136q-3 77 -80 77q-51 0 -73 -28t-22 -88v-64h-253v84q0 162 84 243t268 81q327 0 340 -258v-373q-2 -88 -2 -309q0 -181 14 -201h-260q-3 0 -6.5 30t-3.5 52q-73 -90 -228 -90q-98 0 -168.5 50 t-76.5 163zM233 1376q0 85 57 143t140 58t141 -58t58 -143q0 -86 -58 -145.5t-141 -59.5t-140 59.5t-57 145.5zM299 360q0 -69 4 -102q8 -53 80 -53q36 0 65.5 20t36.5 60q4 26 6 48t3 50t2 47q1 10 1 27t-0.5 35t-0.5 22q-41 0 -66 -4q-65 -13 -94 -39q-24 -21 -30.5 -45 t-6.5 -66zM367 1376q0 -29 18.5 -50t44.5 -21q28 0 48 21t20 50q0 28 -20 49t-48 21q-26 0 -44.5 -21t-18.5 -49z" />
<glyph unicode="&#xe6;" horiz-adv-x="1249" d="M27 205q-7 83 0 180q7 120 93.5 197t231.5 104q89 14 144 14q0 101 -2 136q-3 77 -80 77q-73 0 -84 -63q-11 -51 -11 -117h-256q0 157 46 252q75 156 309 156q158 0 233 -78q24 37 85.5 57.5t131.5 20.5q116 0 197 -49.5t117 -137.5q28 -70 39.5 -203t3.5 -282h-465 q0 -116 8 -184q4 -39 32 -59.5t62 -20.5t60.5 15.5t33.5 47.5q13 57 13 99h250q0 -40 -13 -111.5t-41 -120.5q-80 -149 -293 -149q-249 0 -317 159q-50 -153 -272 -153q-46 0 -87.5 10.5t-79.5 34t-62 66.5t-27 102zM299 360q0 -69 4 -102q8 -53 80 -53q36 0 65.5 20 t36.5 60q4 26 6 48t3 50t2 47q1 10 1 27t-0.5 35t-0.5 22q-41 0 -66 -4q-65 -13 -94 -39q-24 -21 -30.5 -45t-6.5 -66zM756 670h211q0 133 -15 184q-16 61 -88 61q-71 0 -92 -59q-16 -40 -16 -186z" />
<glyph unicode="&#xe7;" horiz-adv-x="782" d="M33 563q0 125 11.5 209.5t41.5 175.5q31 91 113.5 142t201.5 51q273 0 334 -205q21 -64 21 -268h-256q0 66 -13 159q-11 82 -84 82q-74 0 -86 -84q-16 -107 -16 -264q0 -152 16 -264q6 -43 27.5 -62.5t61.5 -19.5q38 0 60.5 23.5t27.5 60.5q8 59 8 154h254 q0 -123 -6.5 -176t-34.5 -123q-26 -64 -89.5 -108t-156.5 -56v-33q74 -6 119 -49.5t45 -114.5q0 -110 -105 -159.5t-301 -18.5v135q65 -8 105 -6.5t62 16.5t29 30t7 34q0 78 -111 78v90q-171 27 -229 158q-25 56 -41 171t-16 242z" />
<glyph unicode="&#xe8;" horiz-adv-x="790" d="M33 557q0 125 14.5 231.5t38.5 163.5q77 189 322 189q116 0 196.5 -49.5t116.5 -137.5q28 -70 39.5 -203t3.5 -282h-465q0 -116 8 -184q4 -39 32 -59.5t62 -20.5t61 15.5t34 47.5q12 53 12 99h250q0 -41 -12.5 -112t-40.5 -120q-80 -149 -293 -149q-250 0 -318 159 q-61 141 -61 412zM123 1499h293l141 -299h-258zM295 670h211q0 137 -14 184q-16 61 -89 61q-71 0 -92 -59q-16 -40 -16 -186z" />
<glyph unicode="&#xe9;" horiz-adv-x="790" d="M33 557q0 125 14.5 231.5t38.5 163.5q77 189 322 189q116 0 196.5 -49.5t116.5 -137.5q28 -70 39.5 -203t3.5 -282h-465q0 -116 8 -184q4 -39 32 -59.5t62 -20.5t61 15.5t34 47.5q12 53 12 99h250q0 -41 -12.5 -112t-40.5 -120q-80 -149 -293 -149q-250 0 -318 159 q-61 141 -61 412zM254 1200l139 299h291l-176 -299h-254zM295 670h211q0 137 -14 184q-16 61 -89 61q-71 0 -92 -59q-16 -40 -16 -186z" />
<glyph unicode="&#xea;" horiz-adv-x="790" d="M33 557q0 125 14.5 231.5t38.5 163.5q77 189 322 189q116 0 196.5 -49.5t116.5 -137.5q28 -70 39.5 -203t3.5 -282h-465q0 -116 8 -184q4 -39 32 -59.5t62 -20.5t61 15.5t34 47.5q12 53 12 99h250q0 -41 -12.5 -112t-40.5 -120q-80 -149 -293 -149q-250 0 -318 159 q-61 141 -61 412zM115 1202l155 299h283l156 -299h-226l-73 135l-76 -135h-219zM295 670h211q0 137 -14 184q-16 61 -89 61q-71 0 -92 -59q-16 -40 -16 -186z" />
<glyph unicode="&#xeb;" horiz-adv-x="790" d="M33 557q0 125 14.5 231.5t38.5 163.5q77 189 322 189q116 0 196.5 -49.5t116.5 -137.5q28 -70 39.5 -203t3.5 -282h-465q0 -116 8 -184q4 -39 32 -59.5t62 -20.5t61 15.5t34 47.5q12 53 12 99h250q0 -41 -12.5 -112t-40.5 -120q-80 -149 -293 -149q-250 0 -318 159 q-61 141 -61 412zM133 1200v258h217v-258h-217zM295 670h211q0 137 -14 184q-16 61 -89 61q-71 0 -92 -59q-16 -40 -16 -186zM463 1200v258h219v-258h-219z" />
<glyph unicode="&#xec;" horiz-adv-x="391" d="M-92 1499h293l141 -299h-258zM55 78v1048h281v-1044q0 -19 2.5 -39t5.5 -31t4 -12h-276q-17 3 -17 78z" />
<glyph unicode="&#xed;" horiz-adv-x="391" d="M55 78v1048h281v-1044q0 -19 2.5 -39t5.5 -31t4 -12h-276q-17 3 -17 78zM57 1200l140 299h290l-176 -299h-254z" />
<glyph unicode="&#xee;" horiz-adv-x="391" d="M-94 1202l155 299h283l156 -299h-226l-73 135l-76 -135h-219zM55 78v1048h281v-1044q0 -19 2.5 -39t5.5 -31t4 -12h-276q-17 3 -17 78z" />
<glyph unicode="&#xef;" horiz-adv-x="391" d="M-78 1200v258h217v-258h-217zM55 78v1048h281v-1044q0 -19 2.5 -39t5.5 -31t4 -12h-276q-17 3 -17 78zM252 1200v258h219v-258h-219z" />
<glyph unicode="&#xf0;" horiz-adv-x="845" d="M32.5 520.5q-0.5 221.5 26.5 319.5q30 81 100.5 127.5t174.5 46.5q64 0 106.5 -17.5t89.5 -58.5q0 60 -6 162q-25 -10 -55 -10q-119 0 -164 139l94 45q22 -72 66 -72q23 0 57 17q-3 78 -6 96q-9 123 -100 123q-45 0 -65.5 -16t-24.5 -58q-2 -12 -2 -51h-265q0 67 7 110 q20 96 106 162t242 66q154 0 241.5 -75.5t110.5 -203.5q3 -13 7.5 -37t6.5 -35q26 13 56 13q55 0 95.5 -35t61.5 -96l-86 -56q-20 74 -69 74q-15 0 -43 -16q18 -264 18 -312q0 -165 -11 -363.5t-38 -281.5q-40 -122 -122.5 -182.5t-227.5 -60.5q-147 0 -231 54.5t-120 168.5 q-30 92 -30.5 313.5zM319.5 513.5q-1.5 -165.5 4.5 -208.5q6 -51 29 -72.5t67 -21.5q50 0 74 24t28 80q3 34 8 178.5t5 202.5q-26 99 -109 99t-100 -74q-5 -42 -6.5 -207.5z" />
<glyph unicode="&#xf1;" horiz-adv-x="815" d="M53 0v1126h264v-110q20 60 78 92.5t137 32.5q234 0 234 -262q0 -877 4 -879h-268q-3 0 -4 14t-2 91t-1.5 240.5t-0.5 463.5q0 92 -74 92q-43 0 -69.5 -31t-26.5 -98v-772h-271zM119 1208q5 130 55 205.5t133 75.5q85 0 142 -62q38 -44 73 -41q25 1 36.5 23t14.5 72h175 q-4 -137 -55 -211t-134 -74q-40 0 -66.5 8.5t-56.5 38.5q-23 22 -33 30.5t-25 15.5t-32 7q-43 -3 -49 -88h-178z" />
<glyph unicode="&#xf2;" horiz-adv-x="817" d="M31 565q0 211 43 353q28 96 111.5 159.5t224.5 63.5q272 0 338 -230q34 -114 34 -346q0 -223 -37 -344q-67 -235 -339 -235q-135 0 -222.5 63t-117.5 172q-14 53 -24.5 153t-10.5 191zM117 1499h293l141 -299h-258zM301 561q0 -195 12 -274q7 -38 32.5 -58t62.5 -20 t64 23.5t32 56.5q12 84 12 272q0 209 -12 273q-9 40 -32 57.5t-64 17.5q-76 0 -95 -80q-12 -56 -12 -268z" />
<glyph unicode="&#xf3;" horiz-adv-x="817" d="M31 565q0 211 43 353q28 96 111.5 159.5t224.5 63.5q272 0 338 -230q34 -114 34 -346q0 -223 -37 -344q-67 -235 -339 -235q-135 0 -222.5 63t-117.5 172q-14 53 -24.5 153t-10.5 191zM272 1200l140 299h290l-176 -299h-254zM301 561q0 -195 12 -274q7 -38 32.5 -58 t62.5 -20t64 23.5t32 56.5q12 84 12 272q0 209 -12 273q-9 40 -32 57.5t-64 17.5q-76 0 -95 -80q-12 -56 -12 -268z" />
<glyph unicode="&#xf4;" horiz-adv-x="817" d="M31 565q0 211 43 353q28 96 111.5 159.5t224.5 63.5q272 0 338 -230q34 -114 34 -346q0 -223 -37 -344q-67 -235 -339 -235q-135 0 -222.5 63t-117.5 172q-14 53 -24.5 153t-10.5 191zM113 1202l155 299h283l156 -299h-226l-73 135l-76 -135h-219zM301 561 q0 -195 12 -274q7 -38 32.5 -58t62.5 -20t64 23.5t32 56.5q12 84 12 272q0 209 -12 273q-9 40 -32 57.5t-64 17.5q-76 0 -95 -80q-12 -56 -12 -268z" />
<glyph unicode="&#xf5;" horiz-adv-x="817" d="M31 565q0 211 43 353q28 96 111.5 159.5t224.5 63.5q272 0 338 -230q34 -114 34 -346q0 -223 -37 -344q-67 -235 -339 -235q-135 0 -222.5 63t-117.5 172q-14 53 -24.5 153t-10.5 191zM90 1208q5 129 55.5 205t133.5 76q84 0 141 -62q38 -44 74 -41q25 1 36.5 23t14.5 72 h174q-4 -137 -55 -211t-134 -74q-40 0 -66 8.5t-56 38.5q-23 21 -33.5 30t-25.5 16t-32 7q-43 -3 -49 -88h-178zM301 561q0 -195 12 -274q7 -38 32.5 -58t62.5 -20t64 23.5t32 56.5q12 84 12 272q0 209 -12 273q-9 40 -32 57.5t-64 17.5q-76 0 -95 -80q-12 -56 -12 -268z " />
<glyph unicode="&#xf6;" horiz-adv-x="817" d="M31 565q0 211 43 353q28 96 111.5 159.5t224.5 63.5q272 0 338 -230q34 -114 34 -346q0 -223 -37 -344q-67 -235 -339 -235q-135 0 -222.5 63t-117.5 172q-14 53 -24.5 153t-10.5 191zM135 1200v258h217v-258h-217zM301 561q0 -195 12 -274q7 -38 32.5 -58t62.5 -20 t64 23.5t32 56.5q12 84 12 272q0 209 -12 273q-9 40 -32 57.5t-64 17.5q-76 0 -95 -80q-12 -56 -12 -268zM465 1200v258h219v-258h-219z" />
<glyph unicode="&#xf7;" horiz-adv-x="735" d="M23 702v220h688v-220h-688zM250 422v192h235v-192h-235zM250 1010v190h235v-190h-235z" />
<glyph unicode="&#xf8;" horiz-adv-x="817" d="M31 565q0 211 43 353q28 96 111.5 159.5t224.5 63.5q81 0 157 -27l23 64h86q-37 -101 -39 -101q82 -59 111 -166q34 -114 34 -346q0 -223 -37 -344q-67 -235 -339 -235q-90 0 -160 28l-27 -69h-84l41 108q-83 65 -110 168q-14 53 -24.5 153t-10.5 191zM301 561 q0 -62 4 -180l182 493q-22 35 -79 35q-76 0 -95 -80q-12 -56 -12 -268zM326 252q24 -43 82 -43q37 0 64 23.5t32 56.5q12 84 12 272q0 73 -4 191q0 1 -46.5 -124t-93.5 -250z" />
<glyph unicode="&#xf9;" d="M45 1126h1h1h1h1h1h1h1h1h1h1h1h1h1h1h1h1h1h1h1h1h1h1h1h1h1h1h1h1h1h1h1h1h1h1h1h1h1h1h1h1h1h1h1h1h1h1h1h1h1h1h1h1h1h2h1h1h1h1h1h1h1h2h1h1h1h1h1h2h1h1h1h2h1h1h1h2h1h1h1h2h1h1h2h1h1h1h2h1h1h2h1h2h1h1h2h1h1h2h1h2h1h1h2h1h2h1h2h1h2h1h2h1h1h2h1h2h1h2h2h1h2 h1h2h1h2h1h2h1h2h2h1h2h1h2h2h1h2h1h2h2h1h2h2h1h2h2h1h2h2h1h2h2h1h2h2h1h2h2h2h1h2h2h2h1h2h2h2h1h2h2h2h2h1h2h2h2h2h2h1h2h2h2h2h2h1h2h2h2h2h2h2h2h8q3 0 3 -817q0 -50 19 -71t60 -21q88 0 88 125v784h273v-991q0 -103 4 -135h-260l-8 70q-29 -37 -81.5 -57.5 t-115.5 -20.5q-254 0 -254 291q0 841 -2 843zM135 1499h293l141 -299h-258z" />
<glyph unicode="&#xfa;" d="M45 1126h1h1h1h1h1h1h1h1h1h1h1h1h1h1h1h1h1h1h1h1h1h1h1h1h1h1h1h1h1h1h1h1h1h1h1h1h1h1h1h1h1h1h1h1h1h1h1h1h1h1h1h1h1h2h1h1h1h1h1h1h1h2h1h1h1h1h1h2h1h1h1h2h1h1h1h2h1h1h1h2h1h1h2h1h1h1h2h1h1h2h1h2h1h1h2h1h1h2h1h2h1h1h2h1h2h1h2h1h2h1h2h1h1h2h1h2h1h2h2h1h2 h1h2h1h2h1h2h1h2h2h1h2h1h2h2h1h2h1h2h2h1h2h2h1h2h2h1h2h2h1h2h2h1h2h2h1h2h2h2h1h2h2h2h1h2h2h2h1h2h2h2h2h1h2h2h2h2h2h1h2h2h2h2h2h1h2h2h2h2h2h2h2h8q3 0 3 -817q0 -50 19 -71t60 -21q88 0 88 125v784h273v-991q0 -103 4 -135h-260l-8 70q-29 -37 -81.5 -57.5 t-115.5 -20.5q-254 0 -254 291q0 841 -2 843zM258 1200l139 299h291l-176 -299h-254z" />
<glyph unicode="&#xfb;" d="M45 1126h1h1h1h1h1h1h1h1h1h1h1h1h1h1h1h1h1h1h1h1h1h1h1h1h1h1h1h1h1h1h1h1h1h1h1h1h1h1h1h1h1h1h1h1h1h1h1h1h1h1h1h1h1h2h1h1h1h1h1h1h1h2h1h1h1h1h1h2h1h1h1h2h1h1h1h2h1h1h1h2h1h1h2h1h1h1h2h1h1h2h1h2h1h1h2h1h1h2h1h2h1h1h2h1h2h1h2h1h2h1h2h1h1h2h1h2h1h2h2h1h2 h1h2h1h2h1h2h1h2h2h1h2h1h2h2h1h2h1h2h2h1h2h2h1h2h2h1h2h2h1h2h2h1h2h2h1h2h2h2h1h2h2h2h1h2h2h2h1h2h2h2h2h1h2h2h2h2h2h1h2h2h2h2h2h1h2h2h2h2h2h2h2h8q3 0 3 -817q0 -50 19 -71t60 -21q88 0 88 125v784h273v-991q0 -103 4 -135h-260l-8 70q-29 -37 -81.5 -57.5 t-115.5 -20.5q-254 0 -254 291q0 841 -2 843zM106 1202l156 299h283l155 -299h-225l-74 135l-75 -135h-220z" />
<glyph unicode="&#xfc;" d="M45 1126h1h1h1h1h1h1h1h1h1h1h1h1h1h1h1h1h1h1h1h1h1h1h1h1h1h1h1h1h1h1h1h1h1h1h1h1h1h1h1h1h1h1h1h1h1h1h1h1h1h1h1h1h1h2h1h1h1h1h1h1h1h2h1h1h1h1h1h2h1h1h1h2h1h1h1h2h1h1h1h2h1h1h2h1h1h1h2h1h1h2h1h2h1h1h2h1h1h2h1h2h1h1h2h1h2h1h2h1h2h1h2h1h1h2h1h2h1h2h2h1h2 h1h2h1h2h1h2h1h2h2h1h2h1h2h2h1h2h1h2h2h1h2h2h1h2h2h1h2h2h1h2h2h1h2h2h1h2h2h2h1h2h2h2h1h2h2h2h1h2h2h2h2h1h2h2h2h2h2h1h2h2h2h2h2h1h2h2h2h2h2h2h2h8q3 0 3 -817q0 -50 19 -71t60 -21q88 0 88 125v784h273v-991q0 -103 4 -135h-260l-8 70q-29 -37 -81.5 -57.5 t-115.5 -20.5q-254 0 -254 291q0 841 -2 843zM135 1200v258h217v-258h-217zM465 1200v258h219v-258h-219z" />
<glyph unicode="&#xfd;" horiz-adv-x="829" d="M2 1126h279q2 -13 69 -362.5t68 -362.5q1 7 35.5 183.5t67.5 351.5t34 190h272l-368 -1460h-281l92 365zM258 1200l139 299h291l-176 -299h-254z" />
<glyph unicode="&#xfe;" horiz-adv-x="831" d="M53 -334v1970h264v-596q22 47 76.5 74t130.5 27q90 0 146.5 -38t85.5 -120q49 -131 49 -401q0 -279 -41 -394q-26 -92 -91 -142t-159 -50q-128 0 -192 61v-391h-269zM319 573q0 -212 15 -294q21 -62 88 -62q77 0 92 76q12 61 12 280q0 207 -18 273q-16 61 -84 61 q-66 0 -84 -73q-21 -120 -21 -261z" />
<glyph unicode="&#xff;" horiz-adv-x="829" d="M2 1126h279q2 -13 69 -362.5t68 -362.5q1 7 35.5 183.5t67.5 351.5t34 190h272l-368 -1460h-281l92 365zM145 1200v258h217v-258h-217zM475 1200v258h219v-258h-219z" />
<glyph unicode="&#x152;" horiz-adv-x="1337" d="M37 821q0 146 7 298.5t19 191.5q55 336 406 336q185 0 256 -74v61h596v-278h-420v-402h387v-266h-387v-414h420v-274h-598v59q-30 -30 -100.5 -53.5t-149.5 -23.5q-360 0 -410 319q-11 50 -18.5 216t-7.5 304zM342 813q0 -117 5.5 -267.5t14.5 -197.5q13 -53 41 -78.5 t82 -25.5q95 0 115 86q4 53 4 489q0 400 -4 453q-9 59 -35.5 84.5t-81.5 25.5q-56 0 -82 -28.5t-39 -91.5q-8 -43 -14 -192.5t-6 -256.5z" />
<glyph unicode="&#x153;" horiz-adv-x="1265" d="M31 565q0 94 12.5 199.5t30.5 153.5q31 98 113 160.5t223 62.5q151 0 245 -90q23 36 81.5 63t154.5 27q116 0 196.5 -49.5t116.5 -137.5q28 -70 39.5 -203t3.5 -282h-465q0 -107 9 -184q4 -39 32 -59.5t62 -20.5t60.5 15.5t33.5 47.5q12 53 12 99h250q0 -41 -12.5 -112 t-40.5 -120q-80 -149 -293 -149q-103 0 -164 22t-90 70q-27 -42 -95 -67t-151 -25q-136 0 -218 66t-109 169q-17 49 -27 147.5t-10 196.5zM301 561q0 -204 10 -270q9 -38 34.5 -58t62.5 -20q77 0 96 80q12 76 12 268q0 209 -12 273q-9 40 -32 57.5t-64 17.5q-76 0 -95 -80 q-12 -56 -12 -268zM778 670h211q0 137 -14 184q-16 61 -88 61q-71 0 -92 -59q-17 -42 -17 -186z" />
<glyph unicode="&#x178;" horiz-adv-x="985" d="M0 1634h305q160 -598 178 -682l207 682h295l-352 -1022v-612h-299v606zM225 1696v258h217v-258h-217zM555 1696v258h219v-258h-219z" />
<glyph unicode="&#x2c6;" horiz-adv-x="768" d="M88 1202l156 299h282l156 -299h-225l-74 135l-76 -135h-219z" />
<glyph unicode="&#x2dc;" horiz-adv-x="768" d="M63 1208q5 129 55.5 205t133.5 76q84 0 141 -62q38 -44 74 -41q25 1 36.5 23t14.5 72h174q-4 -137 -54.5 -211t-133.5 -74q-40 0 -66.5 8.5t-56.5 38.5q-23 22 -33 30.5t-25 15.5t-32 7q-43 -3 -49 -88h-179z" />
<glyph unicode="&#x2000;" horiz-adv-x="1024" />
<glyph unicode="&#x2001;" horiz-adv-x="2048" />
<glyph unicode="&#x2002;" horiz-adv-x="1024" />
<glyph unicode="&#x2003;" horiz-adv-x="2048" />
<glyph unicode="&#x2004;" horiz-adv-x="682" />
<glyph unicode="&#x2005;" horiz-adv-x="512" />
<glyph unicode="&#x2006;" horiz-adv-x="341" />
<glyph unicode="&#x2007;" horiz-adv-x="341" />
<glyph unicode="&#x2008;" horiz-adv-x="256" />
<glyph unicode="&#x2009;" horiz-adv-x="409" />
<glyph unicode="&#x200a;" horiz-adv-x="113" />
<glyph unicode="&#x2010;" horiz-adv-x="614" d="M18 657v289h578v-289h-578z" />
<glyph unicode="&#x2011;" horiz-adv-x="614" d="M18 657v289h578v-289h-578z" />
<glyph unicode="&#x2012;" horiz-adv-x="614" d="M18 657v289h578v-289h-578z" />
<glyph unicode="&#x2013;" horiz-adv-x="665" d="M27 602v266h612v-266h-612z" />
<glyph unicode="&#x2014;" horiz-adv-x="1009" d="M100 602v266h809v-266h-809z" />
<glyph unicode="&#x2018;" horiz-adv-x="362" d="M41 1073v352l176 222l125 -88l-78 -136l4 -10h60v-340h-287z" />
<glyph unicode="&#x2019;" horiz-adv-x="362" d="M27 1149l77 135l-4 8h-59v342h287v-354l-176 -219z" />
<glyph unicode="&#x201a;" horiz-adv-x="362" d="M27 -143l77 135l-4 8h-59v342h287v-354l-176 -219z" />
<glyph unicode="&#x201c;" horiz-adv-x="704" d="M43 1073v348l178 226l123 -88l-80 -140l4 -8h56v-338h-281zM381 1073v348l178 226l121 -88l-80 -140l4 -8l60 -2v-336h-283z" />
<glyph unicode="&#x201d;" horiz-adv-x="704" d="M29 1149l80 139l-5 8h-57v338h281v-350l-178 -223zM367 1149l79 139l-4 8h-57v338h281v-350l-177 -223z" />
<glyph unicode="&#x201e;" horiz-adv-x="704" d="M29 -147l80 139l-5 8h-57v338h281v-350l-178 -224zM367 -147l79 139l-4 8h-57v338h281v-350l-177 -224z" />
<glyph unicode="&#x2022;" horiz-adv-x="741" d="M106 745q0 115 78.5 195t188.5 80q109 0 186.5 -80t77.5 -195q0 -113 -78 -194.5t-186 -81.5q-109 0 -188 82t-79 194z" />
<glyph unicode="&#x2026;" horiz-adv-x="1320" d="M66 0v369h307v-369h-307zM508 0v369h305v-369h-305zM946 0v369h305v-369h-305z" />
<glyph unicode="&#x202f;" horiz-adv-x="409" />
<glyph unicode="&#x2039;" horiz-adv-x="434" d="M27 618v203l383 377v-295l-187 -182l187 -182v-297z" />
<glyph unicode="&#x203a;" horiz-adv-x="434" d="M27 242v297l186 182l-186 182v295l381 -377v-203z" />
<glyph unicode="&#x205f;" horiz-adv-x="512" />
<glyph unicode="&#x20ac;" horiz-adv-x="919" d="M20 623v157h78v70h-78v158h84q8 293 25 372q62 269 363 269q298 0 360 -277q25 -86 29 -309h-287v205q-6 143 -100 143q-50 0 -73 -32t-28 -97q-4 -41 -4 -274h172v-158h-174v-70h174v-157h-172q0 -238 4 -277q5 -68 28.5 -101.5t72.5 -33.5q94 0 100 141v195h287 q-4 -152 -19 -242q-27 -158 -116 -239.5t-252 -81.5q-164 0 -253 80t-118 233q-8 52 -17 326h-86z" />
<glyph unicode="&#x2122;" horiz-adv-x="1351" d="M6 1452v184h473v-184h-153q0 -113 2 -174q5 -53 61 -53q45 0 55 2v-164q-36 -8 -127 -8q-84 0 -133 42.5t-49 123.5v231h-129zM518 1059v577h189v-96q12 51 53.5 79t101.5 28q58 0 91.5 -30t43.5 -77q33 107 164 107q82 0 118 -49.5t36 -116.5v-422h-195v334 q0 33 -10.5 49t-38.5 16t-42.5 -25.5t-14.5 -66.5v-307h-193v338q0 32 -11.5 46.5t-37.5 14.5q-29 0 -45 -27.5t-16 -72.5v-299h-193z" />
<glyph unicode="&#x25fc;" horiz-adv-x="1126" d="M0 0v1126h1126v-1126h-1126z" />
<glyph unicode="&#xfb03;" horiz-adv-x="1366" d="M10 887v239h94v242q0 126 64.5 200t208.5 74q85 0 131 -6v-221q-4 0 -30 2t-32 2q-71 0 -71 -86v-207h186v232q0 129 65 206.5t208 77.5q80 0 127 -6v-221q-7 0 -29.5 2t-34.5 2q-66 0 -66 -71v-222h472v-1044q0 -19 2.5 -38.5t6 -31t5.5 -12.5h-277q-7 1 -12.5 24 t-5.5 54v815h-191v-893h-270v893h-184v-893h-273v887h-94z" />
<glyph unicode="&#xfb04;" horiz-adv-x="1347" d="M10 887v239h94v242q0 126 64.5 200t208.5 74q85 0 131 -6v-221q-4 0 -30 2t-32 2q-71 0 -71 -86v-207h186v232q0 129 65 206.5t208 77.5q84 0 127 -6v-221q-28 4 -64 4q-66 0 -66 -71v-222h123v-239h-123v-887h-270v887h-184v-887h-273v887h-94zM1020 1636h274 q0 -1 1 -10.5t2 -26t1 -32.5v-1483q0 -74 13 -84q-273 -2 -273 0q-12 9 -12 78v1460q0 80 -6 98z" />
</font>
</defs>
</svg>
